<svg width="30" height="30" viewBox="0 0 30 30" fill="none" xmlns="http://www.w3.org/2000/svg">
<circle cx="15" cy="15" r="15" fill="#F78866"/>
<path fill-rule="evenodd" clip-rule="evenodd" d="M22.0993 18.1466C21.8665 18.4696 21.3766 18.4696 21.1985 18.4696C20.8032 18.4696 20.6666 18.231 20.0667 17.7546C20.5566 17.6999 21.0213 17.6849 21.403 17.6849C22.0578 17.6849 22.1673 17.7836 22.262 17.8258C22.249 17.8806 22.2074 17.9792 22.0994 18.1466H22.0993ZM12.5768 18.4971C13.3148 16.6796 14.0225 14.651 14.5416 12.7766C15.3737 14.3007 16.3691 15.7824 17.3646 16.9724C15.7961 17.3493 14.118 17.8954 12.5768 18.4971ZM14.0914 6.37075C14.1322 6.35581 14.8685 7.2102 14.1729 8.80468C13.1089 7.7006 14.0225 6.39802 14.0912 6.37075H14.0914ZM8.03414 23.7287C7.69342 23.4479 7.7079 23.267 7.72093 23.1973C7.76131 22.7773 8.40349 22.0357 9.98513 21.1265C8.78539 23.393 8.14441 23.6864 8.03414 23.7286V23.7287ZM21.2534 16.3973C20.5711 16.3973 19.739 16.4972 18.7705 16.6796C17.4203 15.1964 16.0145 13.0559 15.019 10.945C16.0007 6.67882 15.5101 6.07648 15.2919 5.79805C15.06 5.49056 14.7329 5 14.3642 5C14.2001 5 13.7774 5.06973 13.614 5.12452C13.1775 5.27933 12.9592 5.61491 12.7686 6.04921C12.25 7.3072 12.9724 9.43281 13.6957 11.0836C13.0688 13.6582 12.0176 16.7204 10.8996 19.2255C8.10371 20.5392 6.61593 21.8253 6.49263 23.0567C6.43882 23.5042 6.54805 24.1614 7.31152 24.7488C7.51615 24.9165 7.76107 25 8.02175 25C8.67656 25 9.31729 24.497 10.0807 23.4055C10.6273 22.6085 11.2265 21.532 11.8403 20.1887C13.8189 19.3076 16.261 18.4972 18.3608 18.0505C19.5206 19.1959 20.571 19.7833 21.4715 19.7833C22.1255 19.7833 22.6992 19.4753 23.1087 18.875C23.5311 18.2726 23.6267 17.7133 23.3948 17.2523C23.1087 16.6796 22.4123 16.3974 21.2532 16.3974L21.2534 16.3973Z" fill="white"/>
</svg>
